<svg width="164" height="163" viewBox="0 0 164 163" fill="none" xmlns="http://www.w3.org/2000/svg">
<path d="M163.18 120.891V142.181C163.039 153.313 154.231 162.36 143.191 162.879H21.0851C9.4901 162.879 0.0927734 153.481 0.0927734 141.886C0.0927734 136.497 2.12385 131.58 5.46178 127.864C5.96672 127.302 6.50175 126.766 7.06433 126.263L10.7531 122.573L66.9704 66.3555C68.3537 65.0073 69.9212 63.847 71.6327 62.9161C74.6073 61.301 78.0154 60.3838 81.6377 60.3838C93.2328 60.3838 102.63 69.7836 102.63 81.3774C102.63 81.6643 102.624 81.95 102.613 82.2357C102.402 87.4669 100.277 92.2056 96.9203 95.7703L96.8902 95.8004C96.6221 96.0861 96.3439 96.3618 96.0595 96.6311L96.0294 96.6612L87.6959 104.992L74.3041 118.384L71.7969 120.891H163.18Z" fill="#67CE4D"/>
<path d="M163.181 82.2357V104.992H110.521C115.564 98.7412 118.646 90.8449 118.838 82.2357C118.845 81.95 118.849 81.6644 118.849 81.3774C118.849 60.5893 101.997 43.7368 81.2084 43.7368C80.4742 43.7368 79.7475 43.7568 79.0245 43.7994C76.486 43.9435 74.0126 44.342 71.6344 44.9659C65.238 46.6424 59.5056 49.9616 54.9147 54.4447L54.8082 54.55L54.3822 54.976L54.277 55.0825L27.1237 82.2345L4.36713 104.991L3.5527 105.805L0.0944824 109.264V82.2357C0.0944824 37.2012 36.6025 0.692017 81.6382 0.692017C112.75 0.692017 139.793 18.1159 153.537 43.7368C159.691 55.2028 163.182 68.3126 163.182 82.2357H163.181Z" fill="#0790FF"/>
</svg>
